<?xml version="1.0" encoding="UTF-8"?>
<!DOCTYPE svg PUBLIC "-//W3C//DTD SVG 1.1//EN" "http://www.w3.org/Graphics/SVG/1.1/DTD/svg11.dtd">
<svg xmlns="http://www.w3.org/2000/svg" version="1.1" width="500px" height="500px" style="shape-rendering:geometricPrecision; text-rendering:geometricPrecision; image-rendering:optimizeQuality; fill-rule:evenodd; clip-rule:evenodd" xmlns:xlink="http://www.w3.org/1999/xlink">
<g><path style="opacity:0.016" fill="#393939" d="M 182.5,59.5 C 163.803,58.8465 145.47,59.5131 127.5,61.5C 126.596,60.791 126.263,59.791 126.5,58.5C 145.341,58.1698 164.007,58.5031 182.5,59.5 Z"/></g>
<g><path style="opacity:0.539" fill="#d6d6d9" d="M 182.5,59.5 C 183.5,59.8333 184.167,60.5 184.5,61.5C 166.88,60.5271 149.214,60.1938 131.5,60.5C 131.5,61.8333 131.5,63.1667 131.5,64.5C 132.552,64.3505 133.552,64.5172 134.5,65C 133.402,65.7697 133.402,66.603 134.5,67.5C 131.867,65.8679 129.533,63.8679 127.5,61.5C 145.47,59.5131 163.803,58.8465 182.5,59.5 Z"/></g>
<g><path style="opacity:0.999" fill="#f9f8f8" d="M 310.5,74.5 C 310.525,77.179 311.858,78.5123 314.5,78.5C 321.996,85.8283 329.662,92.995 337.5,100C 341.77,103.761 345.437,107.928 348.5,112.5C 348.427,114.027 349.094,115.027 350.5,115.5C 350.5,115.833 350.5,116.167 350.5,116.5C 350.899,120.011 351.566,123.344 352.5,126.5C 352.5,127.167 352.5,127.833 352.5,128.5C 352.5,132.833 352.5,137.167 352.5,141.5C 346.974,141.179 341.64,141.512 336.5,142.5C 327.167,142.5 317.833,142.5 308.5,142.5C 308.748,136.64 307.081,131.473 303.5,127C 301.608,126.027 299.608,125.36 297.5,125C 265.833,124.333 234.167,124.333 202.5,125C 197.102,125.575 193.768,128.408 192.5,133.5C 191.835,136.314 191.502,139.314 191.5,142.5C 191.517,145.913 192.184,148.913 193.5,151.5C 193.5,151.833 193.5,152.167 193.5,152.5C 193.427,154.027 194.094,155.027 195.5,155.5C 197.921,156.891 200.588,157.725 203.5,158C 240.856,158.191 278.189,158.691 315.5,159.5C 318.273,160.657 321.273,161.324 324.5,161.5C 324.833,161.5 325.167,161.5 325.5,161.5C 327.214,162.738 329.214,163.405 331.5,163.5C 334.022,164.011 336.355,165.011 338.5,166.5C 339.865,168.86 341.865,170.527 344.5,171.5C 346.207,172.873 347.54,174.539 348.5,176.5C 348.427,178.027 349.094,179.027 350.5,179.5C 352.11,182.189 352.943,185.189 353,188.5C 353.866,202.537 353.532,216.537 352,230.5C 346.771,239.894 339.938,247.894 331.5,254.5C 330.167,254.5 329.5,255.167 329.5,256.5C 319.193,266.473 308.86,276.473 298.5,286.5C 296.784,286.371 295.117,286.038 293.5,285.5C 287.521,280.188 281.854,274.521 276.5,268.5C 274.547,267.239 272.547,266.073 270.5,265C 253.5,264.667 236.5,264.333 219.5,264C 209.964,254.632 200.631,245.132 191.5,235.5C 191.167,234.5 190.5,233.833 189.5,233.5C 189.167,232.5 188.5,231.833 187.5,231.5C 186.833,231.5 186.5,231.167 186.5,230.5C 223.833,229.833 261.167,229.167 298.5,228.5C 303.77,225.065 308.27,220.731 312,215.5C 314.107,210.371 313.941,205.371 311.5,200.5C 310.183,198.841 308.517,197.674 306.5,197C 254.5,196.667 202.5,196.333 150.5,196C 141.636,187.967 132.969,179.8 124.5,171.5C 124.167,168.5 122.5,166.833 119.5,166.5C 117.203,164.706 115.037,162.706 113,160.5C 112.333,142.167 112.333,123.833 113,105.5C 114.073,104.72 115.24,104.887 116.5,106C 122.729,112.397 129.062,118.564 135.5,124.5C 135.427,126.027 136.094,127.027 137.5,127.5C 143.108,131.439 148.108,136.106 152.5,141.5C 152.56,142.043 152.893,142.376 153.5,142.5C 154.497,135.532 154.83,128.532 154.5,121.5C 154.549,117.922 155.215,114.589 156.5,111.5C 157.924,109.856 159.591,108.356 161.5,107C 160.748,106.329 160.414,105.496 160.5,104.5C 162.346,102.201 163.846,99.868 165,97.5C 154.328,87.9945 144.161,77.9945 134.5,67.5C 133.402,66.603 133.402,65.7697 134.5,65C 133.552,64.5172 132.552,64.3505 131.5,64.5C 131.5,63.1667 131.5,61.8333 131.5,60.5C 149.214,60.1938 166.88,60.5271 184.5,61.5C 193.806,70.1396 202.806,79.1396 211.5,88.5C 218.133,89.8304 225.133,90.4971 232.5,90.5C 239.675,90.4997 246.675,90.1663 253.5,89.5C 246.528,82.1931 239.528,74.8598 232.5,67.5C 232.167,66.5 231.5,65.8333 230.5,65.5C 228.983,65.4894 227.816,64.8228 227,63.5C 225.562,62.0997 224.729,60.433 224.5,58.5C 247.502,58.3334 270.502,58.5 293.5,59C 299.336,64.0042 305.003,69.1708 310.5,74.5 Z"/></g>
<g><path style="opacity:0.004" fill="#323233" d="M 230.5,65.5 C 231.5,65.8333 232.167,66.5 232.5,67.5C 231.167,67.5 230.5,66.8333 230.5,65.5 Z"/></g>
<g><path style="opacity:0.925" fill="#9c979d" d="M 310.5,74.5 C 312.167,75.5 313.5,76.8333 314.5,78.5C 311.858,78.5123 310.525,77.179 310.5,74.5 Z"/></g>
<g><path style="opacity:0.105" fill="#716f72" d="M 211.5,88.5 C 225.421,89.4818 239.421,89.8151 253.5,89.5C 246.675,90.1663 239.675,90.4997 232.5,90.5C 225.133,90.4971 218.133,89.8304 211.5,88.5 Z"/></g>
<g><path style="opacity:0.729" fill="#9c9ca0" d="M 160.5,104.5 C 160.414,105.496 160.748,106.329 161.5,107C 159.591,108.356 157.924,109.856 156.5,111.5C 157.095,108.683 158.428,106.35 160.5,104.5 Z"/></g>
<g><path style="opacity:0.2" fill="#666666" d="M 348.5,112.5 C 349.906,112.973 350.573,113.973 350.5,115.5C 349.094,115.027 348.427,114.027 348.5,112.5 Z"/></g>
<g><path style="opacity:0.455" fill="#9b9a9d" d="M 350.5,116.5 C 351.222,116.918 351.722,117.584 352,118.5C 352.497,121.146 352.664,123.813 352.5,126.5C 351.566,123.344 350.899,120.011 350.5,116.5 Z"/></g>
<g><path style="opacity:0.2" fill="#4b4d4d" d="M 135.5,124.5 C 136.906,124.973 137.573,125.973 137.5,127.5C 136.094,127.027 135.427,126.027 135.5,124.5 Z"/></g>
<g><path style="opacity:0.015" fill="#0c0b13" d="M 154.5,121.5 C 154.83,128.532 154.497,135.532 153.5,142.5C 152.893,142.376 152.56,142.043 152.5,141.5C 153.167,134.833 153.833,128.167 154.5,121.5 Z"/></g>
<g><path style="opacity:0.132" fill="#a4a2a4" d="M 192.5,133.5 C 192.303,139.545 192.637,145.545 193.5,151.5C 192.184,148.913 191.517,145.913 191.5,142.5C 191.502,139.314 191.835,136.314 192.5,133.5 Z"/></g>
<g><path style="opacity:0.481" fill="#828185" d="M 352.5,128.5 C 353.486,132.97 353.819,137.637 353.5,142.5C 347.833,142.5 342.167,142.5 336.5,142.5C 341.64,141.512 346.974,141.179 352.5,141.5C 352.5,137.167 352.5,132.833 352.5,128.5 Z"/></g>
<g><path style="opacity:0.29" fill="#606060" d="M 193.5,152.5 C 194.906,152.973 195.573,153.973 195.5,155.5C 194.094,155.027 193.427,154.027 193.5,152.5 Z"/></g>
<g><path style="opacity:0.376" fill="#5b585c" d="M 315.5,159.5 C 318.829,159.215 321.829,159.882 324.5,161.5C 321.273,161.324 318.273,160.657 315.5,159.5 Z"/></g>
<g><path style="opacity:0.106" fill="#504d51" d="M 325.5,161.5 C 327.898,161.259 329.898,161.926 331.5,163.5C 329.214,163.405 327.214,162.738 325.5,161.5 Z"/></g>
<g><path style="opacity:0.51" fill="#606060" d="M 338.5,166.5 C 341.109,167.443 343.109,169.11 344.5,171.5C 341.865,170.527 339.865,168.86 338.5,166.5 Z"/></g>
<g><path style="opacity:0.29" fill="#898989" d="M 119.5,166.5 C 122.5,166.833 124.167,168.5 124.5,171.5C 122.5,170.167 120.833,168.5 119.5,166.5 Z"/></g>
<g><path style="opacity:0.259" fill="#6c6c6f" d="M 348.5,176.5 C 349.906,176.973 350.573,177.973 350.5,179.5C 349.094,179.027 348.427,178.027 348.5,176.5 Z"/></g>
<g><path style="opacity:0.998" fill="#f6f5f5" d="M 115.5,198.5 C 132.59,213.713 149.257,229.379 165.5,245.5C 166.167,247.5 167.5,248.833 169.5,249.5C 171.461,250.46 173.127,251.793 174.5,253.5C 175.167,256.167 176.833,257.833 179.5,258.5C 200.875,278.509 222.208,298.509 243.5,318.5C 244.167,321.167 245.833,322.833 248.5,323.5C 250.757,324.562 251.923,326.228 252,328.5C 245.631,335.036 239.131,341.369 232.5,347.5C 231.609,346.89 230.609,346.557 229.5,346.5C 219.173,337.506 209.173,328.172 199.5,318.5C 199.167,316.167 197.833,314.833 195.5,314.5C 184.845,305.512 174.845,295.845 165.5,285.5C 165.027,284.094 164.027,283.427 162.5,283.5C 157.167,278.833 152.167,273.833 147.5,268.5C 146.089,266.086 144.089,264.419 141.5,263.5C 131.506,255.173 122.173,246.173 113.5,236.5C 112.853,223.456 113.52,210.789 115.5,198.5 Z"/></g>
<g><path style="opacity:0.016" fill="#0f0c13" d="M 115.5,198.5 C 113.52,210.789 112.853,223.456 113.5,236.5C 112.505,223.677 112.171,210.677 112.5,197.5C 113.791,197.263 114.791,197.596 115.5,198.5 Z"/></g>
<g><path style="opacity:0.024" fill="#343435" d="M 298.5,228.5 C 261.167,229.167 223.833,229.833 186.5,230.5C 185.957,230.44 185.624,230.107 185.5,229.5C 223.161,228.5 260.827,228.167 298.5,228.5 Z"/></g>
<g><path style="opacity:0.008" fill="#313132" d="M 187.5,231.5 C 188.5,231.833 189.167,232.5 189.5,233.5C 188.167,233.5 187.5,232.833 187.5,231.5 Z"/></g>
<g><path style="opacity:0.004" fill="#353536" d="M 189.5,233.5 C 190.5,233.833 191.167,234.5 191.5,235.5C 190.167,235.5 189.5,234.833 189.5,233.5 Z"/></g>
<g><path style="opacity:0.675" fill="#747476" d="M 165.5,245.5 C 167.5,246.167 168.833,247.5 169.5,249.5C 167.5,248.833 166.167,247.5 165.5,245.5 Z"/></g>
<g><path style="opacity:0.322" fill="#605b69" d="M 174.5,253.5 C 176.5,254.833 178.167,256.5 179.5,258.5C 176.833,257.833 175.167,256.167 174.5,253.5 Z"/></g>
<g><path style="opacity:0.016" fill="#444445" d="M 331.5,254.5 C 331.167,255.5 330.5,256.167 329.5,256.5C 329.5,255.167 330.167,254.5 331.5,254.5 Z"/></g>
<g><path style="opacity:0.467" fill="#787879" d="M 141.5,263.5 C 144.089,264.419 146.089,266.086 147.5,268.5C 144.911,267.581 142.911,265.914 141.5,263.5 Z"/></g>
<g><path style="opacity:0.294" fill="#616363" d="M 162.5,283.5 C 164.027,283.427 165.027,284.094 165.5,285.5C 163.973,285.573 162.973,284.906 162.5,283.5 Z"/></g>
<g><path style="opacity:0.435" fill="#8c8b8e" d="M 293.5,285.5 C 295.117,286.038 296.784,286.371 298.5,286.5C 296.543,289.059 294.877,288.726 293.5,285.5 Z"/></g>
<g><path style="opacity:0.329" fill="#595661" d="M 195.5,314.5 C 197.833,314.833 199.167,316.167 199.5,318.5C 197.833,317.5 196.5,316.167 195.5,314.5 Z"/></g>
<g><path style="opacity:0.345" fill="#5c6061" d="M 243.5,318.5 C 245.5,319.833 247.167,321.5 248.5,323.5C 245.833,322.833 244.167,321.167 243.5,318.5 Z"/></g>
<g><path style="opacity:0.004" fill="#35333e" d="M 229.5,346.5 C 230.609,346.557 231.609,346.89 232.5,347.5C 231.221,348.715 230.221,348.382 229.5,346.5 Z"/></g>
<g><path style="opacity:0.554" fill="#bcbbbd" d="M 300.5,362.5 C 290.918,360.283 281.252,359.95 271.5,361.5C 272.263,360.732 273.263,360.232 274.5,360C 281.5,359.333 288.5,359.333 295.5,360C 297.491,360.374 299.158,361.207 300.5,362.5 Z"/></g>
<g><path style="opacity:0.996" fill="#efeeee" d="M 300.5,362.5 C 304.313,363.63 307.313,365.963 309.5,369.5C 310.946,371.618 311.613,373.951 311.5,376.5C 311.5,377.833 311.5,379.167 311.5,380.5C 306.5,380.5 301.5,380.5 296.5,380.5C 295.442,377.603 293.442,375.436 290.5,374C 285.78,373.283 281.114,373.45 276.5,374.5C 275.127,374.343 273.793,374.51 272.5,375C 272.673,376.909 273.007,378.743 273.5,380.5C 273.839,383.669 275.505,385.836 278.5,387C 286.102,389.321 293.769,391.321 301.5,393C 308.227,396.221 312.56,401.388 314.5,408.5C 314.635,413.953 313.968,419.286 312.5,424.5C 306.212,434.582 297.045,439.248 285,438.5C 280.669,438.604 276.502,437.937 272.5,436.5C 272.027,435.094 271.027,434.427 269.5,434.5C 259.985,430.803 255.485,423.803 256,413.5C 260.748,412.365 265.581,412.198 270.5,413C 271.899,415.74 273.566,418.24 275.5,420.5C 275.821,422.048 276.821,422.715 278.5,422.5C 283.509,423.725 288.509,423.725 293.5,422.5C 295.833,422.167 297.167,420.833 297.5,418.5C 299.203,414.98 298.537,411.98 295.5,409.5C 286.553,406.513 277.553,403.68 268.5,401C 256.327,392.484 253.827,381.65 261,368.5C 263.612,364.781 267.112,362.448 271.5,361.5C 281.252,359.95 290.918,360.283 300.5,362.5 Z"/></g>
<g><path style="opacity:0.997" fill="#f7f7f6" d="M 155.5,361.5 C 157.403,361.796 159.07,362.463 160.5,363.5C 160.81,365.144 161.81,366.144 163.5,366.5C 165.074,366.937 166.241,367.937 167,369.5C 171.804,379.894 169.971,388.728 161.5,396C 171.778,402.576 174.945,411.742 171,423.5C 168.434,428.355 164.601,431.689 159.5,433.5C 144.585,435.29 129.585,435.957 114.5,435.5C 114.5,410.833 114.5,386.167 114.5,361.5C 128.167,361.5 141.833,361.5 155.5,361.5 Z M 146.5,375.5 C 151.935,377.156 153.768,380.823 152,386.5C 150.333,387.733 148.833,389.067 147.5,390.5C 141.833,390.5 136.167,390.5 130.5,390.5C 130.5,385.5 130.5,380.5 130.5,375.5C 135.833,375.5 141.167,375.5 146.5,375.5 Z M 146.5,405.5 C 153.337,406.847 155.837,410.847 154,417.5C 152.681,419.487 150.848,420.654 148.5,421C 142.509,421.499 136.509,421.666 130.5,421.5C 130.5,416.167 130.5,410.833 130.5,405.5C 135.833,405.5 141.167,405.5 146.5,405.5 Z"/></g>
<g><path style="opacity:0.997" fill="#f0f0f0" d="M 240.5,409.5 C 240.229,411.38 240.896,412.713 242.5,413.5C 245.467,420.901 248.134,428.401 250.5,436C 244.5,436.667 238.5,436.667 232.5,436C 230.704,431.569 229.037,427.069 227.5,422.5C 218.19,421.502 208.857,421.168 199.5,421.5C 198.46,425.685 197.127,429.685 195.5,433.5C 190.13,435.379 184.463,436.045 178.5,435.5C 178.5,434.5 178.5,433.5 178.5,432.5C 180.167,427.167 181.833,421.833 183.5,416.5C 184.906,416.027 185.573,415.027 185.5,413.5C 188.011,405.127 190.677,396.793 193.5,388.5C 195.213,387.365 195.88,385.698 195.5,383.5C 196.774,378.677 198.441,374.01 200.5,369.5C 202.38,367.245 203.38,364.578 203.5,361.5C 203.611,360.883 203.944,360.383 204.5,360C 210.859,359.169 217.193,359.336 223.5,360.5C 229.992,376.497 235.658,392.83 240.5,409.5 Z M 212.5,381.5 C 213.9,382.1 214.9,383.1 215.5,384.5C 217.293,391.215 219.293,397.882 221.5,404.5C 220.167,405.167 218.833,405.833 217.5,406.5C 214.482,406.665 211.482,406.498 208.5,406C 206.881,405.764 205.881,404.931 205.5,403.5C 206.871,401.064 207.871,398.397 208.5,395.5C 210.146,390.916 211.479,386.249 212.5,381.5 Z"/></g>
<g><path style="opacity:0.995" fill="#f9f9f9" d="M 329.5,359.5 C 344.833,359.5 360.167,359.5 375.5,359.5C 377.37,364.532 378.037,369.865 377.5,375.5C 366.167,375.5 354.833,375.5 343.5,375.5C 343.5,380.833 343.5,386.167 343.5,391.5C 353.5,391.5 363.5,391.5 373.5,391.5C 373.666,396.511 373.499,401.511 373,406.5C 372.617,405.944 372.117,405.611 371.5,405.5C 362.167,405.5 352.833,405.5 343.5,405.5C 343.5,411.167 343.5,416.833 343.5,422.5C 354.833,422.5 366.167,422.5 377.5,422.5C 377.5,427.167 377.5,431.833 377.5,436.5C 361.167,436.5 344.833,436.5 328.5,436.5C 328.176,410.759 328.51,385.092 329.5,359.5 Z"/></g>
<g><path style="opacity:0.208" fill="#404242" d="M 375.5,359.5 C 376.5,359.5 377.5,359.5 378.5,359.5C 378.821,365.026 378.488,370.36 377.5,375.5C 378.037,369.865 377.37,364.532 375.5,359.5 Z"/></g>
<g><path style="opacity:0.235" fill="#6d6d6e" d="M 160.5,363.5 C 162.19,363.856 163.19,364.856 163.5,366.5C 161.81,366.144 160.81,365.144 160.5,363.5 Z"/></g>
<g><path style="opacity:0.145" fill="#7b787d" d="M 203.5,361.5 C 203.38,364.578 202.38,367.245 200.5,369.5C 200.62,366.422 201.62,363.755 203.5,361.5 Z"/></g>
<g><path style="opacity:0.878" fill="#898788" d="M 276.5,374.5 C 274.975,376.216 273.975,378.216 273.5,380.5C 273.007,378.743 272.673,376.909 272.5,375C 273.793,374.51 275.127,374.343 276.5,374.5 Z"/></g>
<g><path style="opacity:0.035" fill="#49494c" d="M 377.5,375.5 C 366.679,376.495 355.679,376.828 344.5,376.5C 344.5,381.167 344.5,385.833 344.5,390.5C 354.348,390.173 364.014,390.506 373.5,391.5C 363.5,391.5 353.5,391.5 343.5,391.5C 343.5,386.167 343.5,380.833 343.5,375.5C 354.833,375.5 366.167,375.5 377.5,375.5 Z"/></g>
<g><path style="opacity:0.039" fill="#666667" d="M 146.5,375.5 C 141.167,375.5 135.833,375.5 130.5,375.5C 130.5,380.5 130.5,385.5 130.5,390.5C 136.167,390.5 141.833,390.5 147.5,390.5C 141.69,391.49 135.69,391.823 129.5,391.5C 129.5,385.833 129.5,380.167 129.5,374.5C 135.358,374.178 141.025,374.511 146.5,375.5 Z"/></g>
<g><path style="opacity:0.467" fill="#8f8d8e" d="M 215.5,384.5 C 214.9,383.1 213.9,382.1 212.5,381.5C 212.281,380.325 212.614,379.325 213.5,378.5C 215.086,380.173 215.753,382.173 215.5,384.5 Z"/></g>
<g><path style="opacity:0.431" fill="#808184" d="M 311.5,376.5 C 312.451,377.919 312.784,379.585 312.5,381.5C 306.974,381.821 301.64,381.488 296.5,380.5C 301.5,380.5 306.5,380.5 311.5,380.5C 311.5,379.167 311.5,377.833 311.5,376.5 Z"/></g>
<g><path style="opacity:0.477" fill="#949396" d="M 155.5,361.5 C 141.833,361.5 128.167,361.5 114.5,361.5C 114.5,386.167 114.5,410.833 114.5,435.5C 129.585,435.957 144.585,435.29 159.5,433.5C 157.981,434.41 156.315,435.243 154.5,436C 140.592,436.823 126.758,436.656 113,435.5C 112.333,410.5 112.333,385.5 113,360.5C 118.922,359.843 124.922,359.51 131,359.5C 139.392,359.298 147.559,359.965 155.5,361.5 Z"/></g>
<g><path style="opacity:0.18" fill="#3f4042" d="M 329.5,359.5 C 328.51,385.092 328.176,410.759 328.5,436.5C 327.833,423.838 327.5,411.004 327.5,398C 327.501,384.815 328.167,371.982 329.5,359.5 Z"/></g>
<g><path style="opacity:0.369" fill="#717072" d="M 195.5,383.5 C 195.88,385.698 195.213,387.365 193.5,388.5C 193.796,386.597 194.463,384.93 195.5,383.5 Z"/></g>
<g><path style="opacity:0.259" fill="#8d8789" d="M 208.5,395.5 C 207.871,398.397 206.871,401.064 205.5,403.5C 205.307,400.189 206.307,397.522 208.5,395.5 Z"/></g>
<g><path style="opacity:0.004" fill="#1b0700" d="M 221.5,404.5 C 222.043,404.56 222.376,404.893 222.5,405.5C 220.955,406.452 219.288,406.785 217.5,406.5C 218.833,405.833 220.167,405.167 221.5,404.5 Z"/></g>
<g><path style="opacity:0.11" fill="#464646" d="M 240.5,409.5 C 241.674,410.514 242.34,411.847 242.5,413.5C 240.896,412.713 240.229,411.38 240.5,409.5 Z"/></g>
<g><path style="opacity:0.353" fill="#595a5c" d="M 371.5,405.5 C 362.682,406.493 353.682,406.827 344.5,406.5C 344.5,411.5 344.5,416.5 344.5,421.5C 355.833,421.5 367.167,421.5 378.5,421.5C 378.821,426.695 378.487,431.695 377.5,436.5C 377.5,431.833 377.5,427.167 377.5,422.5C 366.167,422.5 354.833,422.5 343.5,422.5C 343.5,416.833 343.5,411.167 343.5,405.5C 352.833,405.5 362.167,405.5 371.5,405.5 Z"/></g>
<g><path style="opacity:0.031" fill="#5c5d5d" d="M 146.5,405.5 C 141.167,405.5 135.833,405.5 130.5,405.5C 130.5,410.833 130.5,416.167 130.5,421.5C 129.511,416.025 129.178,410.358 129.5,404.5C 135.358,404.178 141.025,404.511 146.5,405.5 Z"/></g>
<g><path style="opacity:0.039" fill="#505051" d="M 185.5,413.5 C 185.573,415.027 184.906,416.027 183.5,416.5C 183.427,414.973 184.094,413.973 185.5,413.5 Z"/></g>
<g><path style="opacity:0.243" fill="#606062" d="M 297.5,418.5 C 297.167,420.833 295.833,422.167 293.5,422.5C 294.5,420.833 295.833,419.5 297.5,418.5 Z"/></g>
<g><path style="opacity:0.039" fill="#666767" d="M 275.5,420.5 C 276.71,420.932 277.71,421.599 278.5,422.5C 276.821,422.715 275.821,422.048 275.5,420.5 Z"/></g>
<g><path style="opacity:0.318" fill="#666668" d="M 314.5,408.5 C 316.075,414.069 315.409,419.402 312.5,424.5C 313.968,419.286 314.635,413.953 314.5,408.5 Z"/></g>
<g><path style="opacity:0.518" fill="#afacb1" d="M 178.5,432.5 C 178.5,433.5 178.5,434.5 178.5,435.5C 184.463,436.045 190.13,435.379 195.5,433.5C 195.5,434.5 195.5,435.5 195.5,436.5C 189.5,436.5 183.5,436.5 177.5,436.5C 177.232,434.901 177.566,433.568 178.5,432.5 Z"/></g>
<g><path style="opacity:0.137" fill="#686768" d="M 269.5,434.5 C 271.027,434.427 272.027,435.094 272.5,436.5C 270.973,436.573 269.973,435.906 269.5,434.5 Z"/></g>
</svg>
